<?xml version="1.0" encoding="iso-8859-1"?>
<!-- Generator: Adobe Illustrator 19.0.0, SVG Export Plug-In . SVG Version: 6.00 Build 0)  -->
<!-- License: CC0. Made by SVG Repo: https://www.svgrepo.com/svg/278554/paste -->
<svg xmlns:mydata="http://www.w3.org/2000/svg" mydata:contrastcolor="ffffff" mydata:template="Contrast" mydata:presentation="2.5" mydata:layouttype="undefined" mydata:specialfontid="undefined" mydata:id1="076" mydata:id2="436" mydata:companyname="Easy Rent" mydata:companytagline="" version="1.1" xmlns="http://www.w3.org/2000/svg" xmlns:xlink="http://www.w3.org/1999/xlink" viewBox="65 118.47090218215033 420 233.0581956356993" class="watermark-logo"><g fill="none" fill-rule="none" stroke="none" stroke-width="1" stroke-linecap="butt" stroke-linejoin="miter" stroke-miterlimit="10" stroke-dasharray="" stroke-dashoffset="0" font-family="none" font-weight="none" font-size="none" text-anchor="none" style="mix-blend-mode: normal"><g data-paper-data="{&quot;isGlobalGroup&quot;:true,&quot;bounds&quot;:{&quot;x&quot;:65,&quot;y&quot;:118.47090218215033,&quot;width&quot;:420,&quot;height&quot;:233.0581956356993}}"><g data-paper-data="{&quot;isPrimaryText&quot;:true}" fill-rule="nonzero"><path d="M71.1363,303.56117v17.62316h27.05212v5.9118h-27.05212v18.37149h31.28018v5.83697h-37.41648v-53.65523h36.40624v5.9118z" data-paper-data="{&quot;glyphName&quot;:&quot;E&quot;,&quot;glyphIndex&quot;:0,&quot;firstGlyphOfWord&quot;:true,&quot;word&quot;:1}" fill="#000000" style="fill: rgb(255, 255, 255);"></path><path d="M119.55323,337.75983l-5.98664,13.54477h-6.51047l24.0588,-53.65523h6.3608l23.98396,53.65523h-6.66013l-5.98664,-13.54477zM134.10824,304.64625l-11.93586,27.20178h24.0588z" data-paper-data="{&quot;glyphName&quot;:&quot;A&quot;,&quot;glyphIndex&quot;:1,&quot;word&quot;:1}" fill="#000000" style="fill: rgb(255, 255, 255);"></path><path d="M185.21915,297.42487c3.06815,0 6.11136,0.449 9.12962,1.34699c3.01826,0.898 5.64989,2.1078 7.89488,3.6294l-2.61915,5.76214c-2.29488,-1.5216 -4.74566,-2.65657 -7.35234,-3.4049c-2.60668,-0.74833 -5.08241,-1.12249 -7.42717,-1.12249c-3.46726,0 -6.23608,0.62361 -8.30646,1.87082c-2.07038,1.24722 -3.10557,3.00579 -3.10557,5.27572c0,1.94566 0.57372,3.55457 1.72116,4.82673c1.14744,1.27216 2.58797,2.2637 4.3216,2.97461c1.73363,0.71091 4.10958,1.52784 7.12784,2.45078c3.66682,1.17238 6.61648,2.26993 8.849,3.29265c2.23252,1.02272 4.14076,2.53185 5.72472,4.52739c1.58396,1.99555 2.37595,4.62717 2.37595,7.89488c0,2.96837 -0.80445,5.56258 -2.41336,7.78263c-1.60891,2.22004 -3.88508,3.9412 -6.82851,5.16347c-2.94343,1.22227 -6.33586,1.83341 -10.17728,1.83341c-3.84143,0 -7.5706,-0.74209 -11.18753,-2.22628c-3.61693,-1.48419 -6.72249,-3.4735 -9.3167,-5.96793l2.7314,-5.50022c2.44454,2.39465 5.26949,4.25301 8.47483,5.57506c3.20535,1.32205 6.32962,1.98307 9.37283,1.98307c3.89131,0 6.95947,-0.75457 9.20445,-2.2637c2.24499,-1.50913 3.36748,-3.53586 3.36748,-6.08018c0,-1.99555 -0.58619,-3.64187 -1.75857,-4.93898c-1.17238,-1.2971 -2.62539,-2.30735 -4.35902,-3.03073c-1.73363,-0.72339 -4.10958,-1.53408 -7.12784,-2.43207c-3.61693,-1.07261 -6.55412,-2.1078 -8.81158,-3.10557c-2.25746,-0.99777 -4.1657,-2.48196 -5.72472,-4.45256c-1.55902,-1.9706 -2.33853,-4.56481 -2.33853,-7.78263c0,-2.76882 0.76704,-5.20089 2.30111,-7.29621c1.53408,-2.09532 3.71047,-3.7167 6.52918,-4.86414c2.81871,-1.14744 6.06147,-1.72116 9.72829,-1.72116z" data-paper-data="{&quot;glyphName&quot;:&quot;S&quot;,&quot;glyphIndex&quot;:2,&quot;word&quot;:1}" fill="#000000" style="fill: rgb(255, 255, 255);"></path><path d="M235.09532,351.3046h-6.06147v-18.14699l-20.76615,-35.50824h6.3608l17.39866,27.98753l17.17416,-27.98753h6.28597l-20.39198,35.24633z" data-paper-data="{&quot;glyphName&quot;:&quot;Y&quot;,&quot;glyphIndex&quot;:3,&quot;lastGlyphOfWord&quot;:true,&quot;word&quot;:1}" fill="#000000" style="fill: rgb(255, 255, 255);"></path><path d="M308.95546,334.20527c-1.5216,0.09978 -2.71893,0.14967 -3.59198,0.14967h-14.25568v16.94967h-6.1363v-53.65523h20.39198c6.68508,0 11.87973,1.57149 15.58396,4.71448c3.70423,3.14298 5.55635,7.58307 5.55635,13.32027c0,4.3902 -1.03519,8.06325 -3.10557,11.01915c-2.07038,2.9559 -5.03875,5.08241 -8.90512,6.37951l12.53452,18.22183h-6.95947zM305.36347,328.48055c4.88909,0 8.64944,-1.07261 11.28107,-3.21782c2.63163,-2.14521 3.94744,-5.2882 3.94744,-9.42895c0,-4.04098 -1.31581,-7.09666 -3.94744,-9.16704c-2.63163,-2.07038 -6.39198,-3.10557 -11.28107,-3.10557h-14.25568v24.91938z" data-paper-data="{&quot;glyphName&quot;:&quot;R&quot;,&quot;glyphIndex&quot;:4,&quot;firstGlyphOfWord&quot;:true,&quot;word&quot;:2}" fill="#000000" style="fill: rgb(255, 255, 255);"></path><path d="M346.48419,303.56117v17.62316h27.05212v5.9118h-27.05212v18.37149h31.28018v5.83697h-37.41648v-53.65523h36.40624v5.9118z" data-paper-data="{&quot;glyphName&quot;:&quot;E&quot;,&quot;glyphIndex&quot;:5,&quot;word&quot;:2}" fill="#000000" style="fill: rgb(255, 255, 255);"></path><path d="M428.53853,351.3046l-32.17817,-43.06637v43.06637h-6.1363v-53.65523h6.3608l32.17817,43.1412v-43.1412h6.06147v53.65523z" data-paper-data="{&quot;glyphName&quot;:&quot;N&quot;,&quot;glyphIndex&quot;:6,&quot;word&quot;:2}" fill="#000000" style="fill: rgb(255, 255, 255);"></path><path d="M467.45167,303.56117v47.74343h-6.1363v-47.74343h-17.43608v-5.9118h41.12071v5.9118z" data-paper-data="{&quot;glyphName&quot;:&quot;T&quot;,&quot;glyphIndex&quot;:7,&quot;lastGlyphOfWord&quot;:true,&quot;word&quot;:2}" fill="#000000" style="fill: rgb(255, 255, 255);"></path></g><g data-paper-data="{&quot;selectedEffects&quot;:{&quot;container&quot;:&quot;&quot;,&quot;transformation&quot;:&quot;&quot;,&quot;pattern&quot;:&quot;&quot;},&quot;initialText&quot;:&quot;E&quot;,&quot;isIcon&quot;:&quot;true&quot;,&quot;iconType&quot;:&quot;initial&quot;,&quot;iconStyle&quot;:&quot;standalone&quot;,&quot;rawInitialId&quot;:1082,&quot;monogramSpecial&quot;:&quot;colorful-dahlia&quot;,&quot;bounds&quot;:{&quot;x&quot;:198.59305332524485,&quot;y&quot;:118.47090218215033,&quot;width&quot;:152.8138933495103,&quot;height&quot;:148.55550411458148},&quot;fillRule&quot;:&quot;nonzero&quot;,&quot;suitableAsStandaloneIcon&quot;:true}" fill-rule="evenodd"><g data-paper-data="{&quot;isPathIcon&quot;:true}"><path d="M281.65007,242.39225c-26.3821,6.40902 -24.54709,-35.50813 0.674,-40.36615c31.93112,-6.15002 34.99513,35.48913 15.03306,55.62721c-15.51806,15.65506 -59.70722,16.77806 -59.10122,-37.01914c0.137,-12.12104 4.23002,-25.7111 17.62707,-40.10515c5.06902,-5.44602 8.40003,-5.87002 8.48603,-6.34802c-3.83101,-2.06501 -8.13103,-4.20302 -12.12004,-8.68603c-9.47804,-10.65104 -6.46802,-27.0291 4.08402,-37.03614c10.91104,-10.34804 25.8361,-11.96604 35.26913,-7.99503c15.07506,6.34602 17.04306,23.74109 8.82603,36.92814c-7.53803,12.09504 -17.73407,10.52604 -16.77106,7.46403c0.099,-0.316 0.509,-1.049 1.104,-2.11401c3.32801,-5.95202 12.45405,-22.28008 5.60702,-34.22413c-2.57401,-4.49102 -7.59703,-8.05503 -13.60005,-6.41402c-16.93006,4.62702 -23.18209,20.06707 -19.53807,32.17812c3.75301,12.46905 17.33106,16.54606 19.00207,18.83607c0.983,1.34801 -0.489,2.56601 -1.87601,3.01401c-9.35903,3.02701 -17.40006,21.08308 -19.78207,30.62311c-4.36802,17.49906 0.058,46.52417 16.69806,54.4762c1.319,0.631 2.68601,1.141 4.19302,1.021c3.45501,-0.279 6.65502,-1.39201 9.63804,-3.10401c22.91109,-13.15105 21.40108,-45.43117 4.54002,-52.7842c-3.45001,-1.50401 -14.21405,10.32204 -11.94404,27.9531c0.22,1.71501 0.716,3.34601 1.75801,4.76602c0.522,0.711 0.529,0.71 1.345,0.436c1.081,-0.362 2.57101,-0.464 3.56401,0.095c1.064,0.599 -1.157,2.39901 -2.71601,2.77801zM233.48389,132.37284c1.015,1.293 1.095,3.00801 1.50401,6.23002c0.26,2.05601 -4.59402,-0.431 -4.76102,-4.17202c-0.014,-2.02801 2.16601,-3.44901 3.25701,-2.05801zM258.93098,174.714c-0.442,0.737 -32.12412,7.05203 -45.86217,-3.35901c-5.56502,-4.21702 -5.36802,-10.91204 -1.35501,-14.49105c6.36202,-5.67102 20.69908,2.56701 32.46512,9.32803c5.73102,3.29301 10.85204,6.23502 14.14605,7.05003c0.527,0.131 0.876,1.021 0.606,1.47201zM296.08712,176.80701c5.80702,-2.99301 12.99105,-6.69602 15.09006,-1.078c2.50301,6.69902 -10.09104,6.78703 -17.25406,5.85002c-1.74301,-0.228 -2.56001,-0.715 -3.00501,-0.771c-1.042,-0.13 -1.158,-1.286 -0.63,-1.41401c1.46301,-0.352 3.52601,-1.41501 5.79902,-2.58701zM339.15528,192.83307c3.66301,-1.51901 7.37603,-1.60701 9.29803,-1.136c1.91801,0.47 3.24101,2.55001 2.90001,4.52902c-0.93,5.41002 -5.39002,2.39301 -8.93203,-0.004c-1.317,-0.891 -2.50801,-1.69601 -3.34201,-1.95001c-0.531,-0.161 -0.491,-1.204 0.076,-1.43901zM236.2739,210.04513c-0.132,0.243 -0.392,0.725 -3.46001,10.44104c-1.64501,5.21102 -4.14602,12.85605 -8.34603,16.40106c-4.86102,4.10302 -12.89305,3.22701 -12.86505,-2.84801c-0.024,-7.35403 7.40803,-12.66105 14.25005,-17.54507c3.51101,-2.50701 6.86603,-4.90302 8.97803,-7.40703c0.483,-0.573 1.91901,-0.482 1.74901,0.076c-0.217,0.718 -0.25,0.779 -0.306,0.882zM239.25691,253.9383c-3.65401,4.06602 -11.40504,1.77101 -11.54804,-8.31403c0.249,-12.06604 7.14903,-21.99408 7.01603,-18.22107c-0.112,3.18501 1.45101,7.11303 3.02301,11.06104c2.35701,5.92002 4.73202,11.88804 1.50901,15.47406zM312.25618,252.69129c-0.013,-1.93501 -0.014,-2.04901 0.333,-2.31401c0.632,-0.482 0.716,-0.286 1.11,0.631c0.154,0.36 0.357,0.831 0.659,1.41701c2.63701,5.10802 -1.152,7.20703 -1.97401,4.70202c-0.243,-0.742 -0.248,-1.50801 -0.253,-2.27401c-0.001,-0.144 -0.002,-0.288 -0.005,-0.432h0.137c0,-0.699 -0.004,-1.267 -0.007,-1.73001z" fill="#ef3340" style="fill: rgb(255, 255, 255);"></path><path d="M253.84296,130.06284c-3.55801,3.38401 -3.27001,4.33702 -4.40502,4.61802c-0.761,0.189 -0.759,-0.039 -0.748,-1.347c0.002,-0.175 0.003,-0.37 0.003,-0.585c0.208,-15.99706 17.39806,-14.33705 5.15002,-2.68601zM248.87594,164.74296c-0.259,0.531 -0.551,0.69 -1.099,0.45c-13.35105,-5.83502 -33.95713,-15.37206 -24.62109,-26.0561c1.008,-1.152 2.25101,-1.64601 4.02401,-1.68001c5.12802,-0.137 9.47204,7.44503 13.59205,14.63405c2.56101,4.47002 5.03602,8.78803 7.55803,11.00404c0.756,0.665 0.836,1.054 0.546,1.64801zM314.33819,175.483c1.055,-0.715 2.51501,-1.70301 4.04001,-3.10701c2.63101,-2.42301 4.78902,-4.79602 6.71702,-6.91603c4.28802,-4.71702 7.44103,-8.18603 12.14905,-8.18003c4.46902,-0.199 9.04703,5.96202 3.64701,10.87304c-3.68201,3.34801 -12.48805,5.75202 -24.97909,9.07103c-2.55601,0.679 -2.85501,0.414 -3.17801,-0.237c-0.156,-0.314 0.506,-0.761 1.60401,-1.50401zM299.17413,184.82004c3.59101,-0.31 11.07004,-0.955 22.56708,-6.24502c0.261,-0.12 0.524,-0.241 0.789,-0.363c5.54802,-2.56001 11.95404,-5.51502 17.47206,-5.05302c9.75804,0.818 14.07805,11.13104 7.15303,15.57006c-4.17602,2.67701 -14.57105,3.03501 -19.48607,3.02001c-9.10103,0.246 -29.52211,-4.98802 -30.28211,-5.18302c-0.37,-0.079 -0.763,-0.772 -0.709,-1.142c0.057,-0.393 0.885,-0.465 2.49601,-0.604zM318.5622,193.46307c7.95403,0.337 19.48307,1.022 25.6641,5.65402c7.50203,5.62402 5.13302,15.30506 0.539,14.95006c-3.49101,-0.04 -8.55003,-3.66301 -11.16704,-5.96602c-12.58705,-11.07404 -21.21508,-12.90005 -21.48308,-14.09105c-0.293,-1.302 0.581,-1.186 2.64601,-0.912c0.991,0.132 2.25701,0.3 3.80101,0.365zM337.86028,213.24914c0.603,-0.587 4.65802,2.15501 6.11102,3.46301c1.346,1.213 2.06001,2.74501 2.09501,4.57102c0,3.89501 -4.43902,3.23101 -6.98803,-3.75501c-0.37,-1.015 -0.662,-1.76401 -0.881,-2.32601c-0.562,-1.44201 -0.645,-1.65301 -0.337,-1.95301zM323.64622,235.81823c0.435,0.358 1.36301,1.124 3.65501,2.42401c7.09403,4.02301 2.26001,10.31804 -0.604,8.00703c-2.85301,-2.30101 -2.82301,-8.50203 -3.87201,-9.75104c-0.232,-0.277 0.001,-0.523 0.2,-0.734c0.02,-0.021 0.04,-0.042 0.058,-0.062c0.182,-0.198 0.199,-0.184 0.563,0.116zM241.13592,255.4263c0.263,-3.24301 0.115,-3.53001 0.828,-3.91201c0.53,-0.284 0.705,-0.241 1.013,0.276c0.087,0.145 0.348,0.449 0.709,0.868c1.56201,1.81701 5.00102,5.81702 4.35302,8.65903c-0.279,1.225 -2.02801,2.22201 -3.30101,1.45901c-2.90101,-1.73801 -3.42801,-4.25602 -3.60201,-7.35003z" fill="#1d4f91" style="fill: rgb(255, 255, 255);"></path><path d="M244.69193,153.45492c-0.512,0.443 -0.934,0.42 -1.266,-0.169c-2.52401,-4.48902 -5.35702,-8.82603 -6.93103,-13.79205c-2.89601,-9.14003 2.93201,-12.66605 6.43702,-12.86505c3.43301,-0.196 4.50602,3.25501 4.28902,6.63702c-0.316,4.92202 -2.71201,10.72704 -2.82101,15.53406c-0.008,1.42801 0.192,2.45901 0.336,3.19401c0.15,0.771 0.237,1.218 -0.044,1.46101zM292.14811,171.54799c0.435,-0.25 1.024,-0.589 1.70601,-1.154c8.75403,-7.25003 10.46004,-24.63509 21.40008,-30.32711c13.39905,-6.97203 28.2191,15.85206 4.44202,26.8431c-7.41403,3.42701 -17.36106,6.54702 -25.47709,6.04802c-0.531,-0.033 -0.939,0.059 -1.279,0.136c-0.584,0.132 -0.967,0.218 -1.43401,-0.452c-0.36,-0.518 -0.06,-0.691 0.642,-1.094zM347.18131,169.44698c2.21501,3.18501 -6.76003,3.30801 -8.07103,2.34701c-0.642,-0.471 -0.487,-0.559 0.509,-1.122c0.465,-0.262 1.112,-0.628 1.94701,-1.184c2.00501,-1.335 4.24502,-2.01001 5.61502,-0.041zM249.17395,179.09502c0.393,-0.027 0.64,-0.044 0.746,-0.041c10.89804,0.398 -41.30015,30.26911 -50.58819,12.39705c-2.59401,-4.99102 2.06501,-7.81003 7.42603,-9.43704c11.42504,-3.46801 18.00807,-3.23501 26.8031,-2.92301c0.486,0.017 0.978,0.035 1.47801,0.052c7.87103,0.392 12.41105,0.073 14.13505,-0.048zM292.80211,193.19807c8.76703,0.257 22.41508,5.00802 29.62511,9.06503c8.60603,4.84402 17.27906,12.41805 17.42206,22.37108c-0.212,8.76203 -8.91703,20.07907 -19.80007,5.28902c-10.30804,-14.00905 -11.30604,-26.0201 -27.5791,-35.40713c-0.625,-0.36 -0.32,-1.338 0.332,-1.318zM213.41481,222.27218c0.74,-0.117 1.95901,0.233 1.43901,0.702c-0.335,0.302 -0.733,0.923 -1.2,1.65301c-1.169,1.82401 -2.76901,4.32302 -4.89902,4.19702c-3.38101,0.257 -5.44002,-4.95102 4.66002,-6.55202zM220.66784,244.30826c0.027,-1.97401 3.00201,-5.32802 4.94602,-6.65702c0.992,-0.677 1.95201,-0.471 1.57901,0.088c-0.272,0.409 -0.327,1.315 -0.393,2.41001c-0.15,2.47901 -0.359,5.92202 -3.28101,6.73703c-1.77801,0.496 -2.83801,-0.303 -2.85101,-2.57801zM298.63313,257.75131c0.248,-0.349 0.609,-0.326 0.989,-0.21c1.053,0.322 -1.009,5.70202 -3.99001,7.62603c-1.76301,1.138 -4.41302,0.899 -3.52901,-0.984c1.115,-2.37401 4.74402,-3.91801 6.53002,-6.43202z" fill="#00c7b1" style="fill: rgb(255, 255, 255);"></path><path d="M307.87916,142.65788c0.431,0.167 0.859,0.29 1.275,-0.075c4.34402,-3.81601 6.34802,-5.71302 7.09103,-8.50503c0.667,-2.50401 -1.39201,-3.89901 -3.42201,-3.79901c-5.22402,-0.001 -5.50102,6.36502 -5.34902,11.53704c0.01,0.382 0.014,0.691 0.405,0.842zM222.89285,154.66593c0.45,0.045 0.648,-0.18 0.767,-0.589c0.142,-0.49 0.011,-0.631 -0.606,-1.298c-0.353,-0.38 -0.864,-0.932 -1.57301,-1.81701c-3.76401,-4.70002 -7.32503,-5.86302 -7.43503,-1.302c-0.078,2.04901 3.81301,4.51402 8.84703,5.00602zM204.08078,178.30501c3.04601,1.106 7.26303,0.291 11.57204,-0.541c0.739,-0.143 1.48101,-0.287 2.21901,-0.421c0.671,-0.122 -0.015,-1.186 -0.731,-1.54401c-3.26901,-1.63701 -3.05401,-1.79001 -6.27902,-3.75201c-4.23102,-2.57601 -10.13904,-2.98601 -10.11304,1.79601c0.011,1.84601 1.44801,3.77801 3.33201,4.46202zM213.40481,220.66517c10.65204,-1.63201 24.95409,-21.01108 30.85211,-29.92811c0.423,-0.64 -0.739,-1.199 -1.84401,-0.368c-7.26003,5.46402 -22.05508,5.49802 -32.70912,12.40205c-12.58505,8.15703 -8.24103,19.72307 3.70101,17.89407zM203.02677,204.16511c2.81101,-0.383 4.91302,-2.24901 7.45703,-4.13302c0.048,-0.035 0.103,-0.067 0.158,-0.098c0.198,-0.114 0.394,-0.227 0.279,-0.54c-0.063,-0.175 -0.097,-0.299 -0.17,-0.393c-0.278,-0.354 -1.128,-0.26 -6.36202,-0.728c-8.09703,-0.024 -5.80202,6.49602 -1.36201,5.89202zM311.76118,226.49619c0.586,1.84901 0.58,4.88402 0.574,8.30403c-0.008,4.14402 -0.017,8.85403 1.024,12.70105c2.94801,10.89604 9.74504,5.77202 10.39804,-0.895c0.631,-6.43002 -6.55702,-16.57206 -10.99404,-21.59708c-0.436,-0.494 -1.325,0.465 -1.002,1.48701zM309.72817,240.73025c-0.677,0.199 -0.54,0.644 -1.028,2.15401c-1.54001,4.77702 -5.12402,7.82803 -6.88703,11.79504c-1.94301,4.37302 -0.047,6.76203 2.86901,6.64702c6.51802,-0.258 6.70902,-6.73402 6.78603,-9.36003c0.005,-0.161 0.009,-0.307 0.014,-0.437c-0.764,-11.19004 -1.029,-11.08404 -1.61401,-10.85004c-0.045,0.018 -0.091,0.036 -0.14,0.051z" fill="#ff8200" style="fill: rgb(255, 255, 255);"></path></g></g></g></g><g class="watermark-group" style="opacity:0.040000010281801224"></g></svg>
